<?xml version="1.0" encoding="UTF-8"?>
<svg id="Layer_1" data-name="Layer 1" xmlns="http://www.w3.org/2000/svg" xmlns:xlink="http://www.w3.org/1999/xlink" viewBox="0 0 473.57 429.55">
  <defs>
    <style>
      .cls-1 {
        fill: #dbb182;
      }

      .cls-2 {
        fill: #00a2d6;
      }

      .cls-3 {
        fill: url(#linear-gradient-2);
      }

      .cls-4 {
        fill: #fdfdfb;
      }

      .cls-5 {
        fill: #ffce3a;
      }

      .cls-6 {
        fill: url(#linear-gradient);
      }

      .cls-7 {
        fill: #2f1b10;
      }

      .cls-8 {
        stroke: #311d11;
        stroke-width: 8.86px;
      }

      .cls-8, .cls-9 {
        fill: none;
        stroke-linecap: round;
        stroke-linejoin: round;
      }

      .cls-10 {
        fill: #331f12;
      }

      .cls-11 {
        fill: #fae8c3;
      }

      .cls-12 {
        fill: #f5a61c;
      }

      .cls-13 {
        fill: #4c3323;
      }

      .cls-14 {
        fill: #d17928;
      }

      .cls-15 {
        fill: #fefcf8;
      }

      .cls-9 {
        stroke: #2e1c11;
        stroke-width: 8.23px;
      }

      .cls-16 {
        fill: #80675a;
      }

      .cls-17 {
        fill: #ddb384;
      }

      .cls-18 {
        fill: #d73127;
      }

      .cls-19 {
        fill: #e95043;
      }

      .cls-20 {
        fill: #321c10;
      }
    </style>
    <linearGradient id="linear-gradient" x1="371.91" y1="174.85" x2="99.35" y2="446.45" gradientTransform="translate(-10.73 -63.87) scale(.63)" gradientUnits="userSpaceOnUse">
      <stop offset="0" stop-color="#f5bc7b"/>
      <stop offset=".35" stop-color="#e59f5d"/>
      <stop offset=".81" stop-color="#975827"/>
      <stop offset=".89" stop-color="#c89567"/>
      <stop offset="1" stop-color="#d8ab7e"/>
    </linearGradient>
    <linearGradient id="linear-gradient-2" x1="686.64" y1="185.28" x2="448.11" y2="436.87" gradientTransform="translate(-10.73 -63.87) scale(.63)" gradientUnits="userSpaceOnUse">
      <stop offset="0" stop-color="#c27738"/>
      <stop offset=".12" stop-color="#c97e3f"/>
      <stop offset=".25" stop-color="#b16d35"/>
      <stop offset=".42" stop-color="#e9ab6a"/>
      <stop offset=".75" stop-color="#e1ac77"/>
      <stop offset="1" stop-color="#ddb081"/>
    </linearGradient>
  </defs>
  <g id="Generative_Object" data-name="Generative Object">
    <g>
      <path class="cls-7" d="M352.86,319.32c-.13,30.52-12.53,58.96-36.4,80.37-9.29,8.33-19.18,15.05-30.52,19.91-31.56,13.53-69.08,13.38-101.49-1.2-23.55-10.6-42.58-28.6-53.01-51.49-6.44-14.14-10.28-28.82-9.95-43.94-1.15-.58-.19-2.38-.76-2.83-19.54-11.84-35.63-28.43-44.76-49.01-2.51-5.66-.08-3.87-3.83-6.17-7.37-.32-12.45-5.18-13.54-12.58-2.61-17.68.16-35.63,5.95-52.09-2.16-.64-3.66,1.07-5.24,1.67-8.61,3.29-17.62,4.44-26.06.34-5.78-2.81-10.25-8.88-10.66-15.59-1.12-18.19-5.08-34.84-12.67-51.63C-.24,112.63-8.32,80.7,15.87,60.96c6.89-5.62,14.19-9.51,21.99-13.4,15.93-7.93,29.9-17.32,43.79-28.79C93.24,9.2,105.9,2.95,120.12.49c24.09-4.16,40.71,19.41,41.34,19.65,1.29.49,2.83-.31,4.02-.76,26-9.8,53.29-15.59,82.08-13.96,22.34,1.26,43.92,5.47,65.05,13.49,9.94-13.43,26.31-21.02,42.27-17.92,14.29,2.77,26.76,10.47,37.96,19.91,11.82,9.97,23.56,18.15,37.53,24.52,21.28,9.71,39.93,19.79,42.9,44.83,1.89,15.91-5.47,37.04-12.1,52.29-6.27,14.42-8.52,29.04-10.39,44.06-1.2,9.61-9.5,16.55-18.47,18.08-8.1,1.38-15.95-1.27-23.18-4.8-1.03,1.95.81,3.66,1.26,5.25,5.07,17.85,5.12,26.51,4.27,45.22-1.13,8.83-7.34,13.57-15.13,15.34-9.75,20.61-24.78,40.59-46.67,53.65Z"/>
      <path class="cls-11" d="M282.22,26.14l-4.9.63c-12.95,13.42-18.83,48.63-18.73,65.87,0,.62.87,1.7.55,2.48-.13.33-.79.38-.74,1.14-.35,16.85.55,29.21,12.28,43.06,10.45,12.35,22.06,22.92,34.52,33.44,6.7,5.66,15.05,9.68,23.19,9.27,7.8-.4,12.89-7.03,23.07-7.96h11.64c15.98,0,27.5,15.11,28.08,31.05.36,9.68-1.19,18.58-6.72,27.18-6.93,10.79-16.77,19.3-28.74,26.11-1.29-8.64-1.23-17.83-.32-26.36,3.49-1.73,7.85-3.02,9.05-7.43,1.34-.11.9-.74.33-1.11-.51-.33-.92-.83-1.44-.49.06-1.4,2.43-2.62,2.13-4.43-2.7-15.75-27.26-19.59-29.38-14.07-2.71,7.04,7.64,6.55.69,15.58-.79-.08-1.03-1.26-1.82-.98-2.56.89-14.91,16.33-38.9,17.21-13.01.47-25.86-.4-37.87-8.11,6.84-4.05,13.67-7.87,17.64-13.83-.09-.48-1.03-1.35-1.31-1.08,6.75-6.14,12.07-13.87,13.53-22.98,1.51-9.49-3.49-18.81-11.64-25.21-22.57-17.73-63.82-12.09-74.41,11.34-5.45,12.05-1.15,26.2,8.33,35.3-2.55,3.23,13.5,13.47,17.26,16.2-2.37,1.69-4.96,3.71-7.81,4.63-15.83,5.14-32.1,5.31-47.63-.74-7.81-3.05-13.48-8.93-19.99-14.3-1.35.5-.52,1.86-1.16,2.48-.95-2.36-3.57-5.39-1.47-8.43,1.14-1.65,3.18-3.53,2.31-5.44-.73-1.59-1.85-4.02-4.33-4.09-6.56-.19-13.97,1.93-19.06,6.03s-6.86,9.89-4.05,15.05c-.64.65-1.76.9-1.42,1.71,2.77,6.59,10.46,3.67,10.3,8.19-.31,8.66.56,17.23-.72,25.99-20.36-11.47-32.02-22.43-35.9-42.35-3.74-19.19,8.89-41.78,29.97-42.09,7.05-.1,12.83.66,19.34,3.76,10.41,4.96,22.81,6.16,32.31-.75,12.68-9.23,23.55-20.36,34.27-31.75,8.25-8.76,14.17-20.74,15.4-31.04l.86-7.18-.07-26.34c-.02-6.78-3.13-23.09-5.01-29.7-2.63-9.24-6.08-17.89-12.58-25.28-.61-.69-2.25.17-2.85-.16,2.38-2.18,28.58-3.29,28.81-3.34,5.91-1.22,12.37-.52,18.51-.06l12.87.96c3.87.29,10.5,1.38,13.76,2.44Z"/>
      <path class="cls-19" d="M278.94,356.6c-1.49-.19-3.31.9-4.67,1.91-12.39,9.16-27.28,13.48-42.81,12.43-14.51-.99-27.99-4.2-40.54-12.33-.93,1.59.56,2.79,1,3.52,2.25-.35,1.97.59-.12.99.65,1.19,1.43,2.1,1.07,3.42-11.19-21.01-13.69-51.13-6.58-74.43,1.02-3.35,6.42-19.97,7.98-21.87-.16.19,6.27-1.89,7.07-2.57,15.05.78,29.75-3.35,43.05-10.16,1.89.06,3.17,2.48,5.93,1.82,17.54,23.66,27.08,51.33,29.22,80.63.45,6.21-.56,11.28-.61,16.65Z"/>
      <path class="cls-12" d="M292.85,368.04c1.31.26,2.18-.19.85-1.33l.16-17.58c11.6-6.81,21.38-15.09,27.66-27.2,7.11-13.72,1.21-33.32-8.92-45.36-.21-.25-10.24-10.57-11.08-8.98-.9-.99-1.24-2.4-2.22-3.76-2.68.75-4.92.51-7.38.34l-7.81-.56c-1.82-.13-4.12-.87-5.47.2-.69-.57-1.53-1.47-.26-1.44,16.35,1.34,21.81.96,38-3.24,15.21,18.15,25.28,37.72,26.3,60.18,1.66,36.88-22.08,72.92-58.1,88.3-2.2-2.38.83-4.38,1.34-6.18,2.8-9.94,6.51-24,6.95-33.39Z"/>
      <path class="cls-2" d="M204.5,403.35c3.62,3.58,6.49,5.3,10,7.92-18.1-4-33.03-13.4-45.56-27.02-21.45-23.31-28.58-56.45-19.8-86.07,4.04-13.64,10.45-26.09,19.48-37.43,1.3-1.44,7.39,1.29,12.68,2.25,1.47.27,1.73.11,2.23,1.19.6,1.29-.8.96-1.27,2.03-2.8,6.31-5.12,12.21-7.18,18.74-13.16,41.5-2.33,86.98,29.43,118.38Z"/>
      <path class="cls-18" d="M278.94,356.6c-.18,19.52-4.19,38.62-12.85,56.87-4.38,2.34-9.16,1.26-13.88.74-17.02-1.88-32.1-9.75-43.78-22.29-4.22-4.52-16.57-21.62-15.55-25.4.35-1.32-.42-2.23-1.07-3.42,2.1-.4,2.38-1.34.12-.99-.44-.73-1.93-1.93-1-3.52,12.55,8.13,26.03,11.34,40.54,12.33,15.53,1.06,30.42-3.27,42.81-12.43,1.36-1,3.18-2.1,4.67-1.91Z"/>
      <path class="cls-5" d="M292.85,368.04c1.27-26.82-1.02-53.21-11.26-77.23l-5.03-11.8c-.92-2.15-1.93-4.95-3.05-6.66,6.63.22,22.69-2.05,28-4.76.83-1.59,10.87,8.74,11.08,8.98,10.13,12.04,16.04,31.64,8.92,45.36-6.28,12.11-16.06,20.39-27.66,27.2l-.16,17.58c1.33,1.13.46,1.59-.85,1.33Z"/>
      <path class="cls-1" d="M150.99,220.02c.64-.62-.2-1.98,1.16-2.48,6.51,5.38,12.18,11.26,19.99,14.3,15.53,6.05,31.81,5.89,47.63.74,2.85-.93,5.44-2.94,7.81-4.63-3.75-2.72-19.81-12.97-17.26-16.2,6.99,6.71,17.14,8.93,26.61,11.17-2.41,5.76-6,11.53-11.05,15.15-26.36,18.91-65.2,5.91-74.9-18.06Z"/>
      <path class="cls-17" d="M336.79,220.11c-7.03,15.02-22.75,24.75-39.54,26.79-11.78,1.43-24.26-1.34-34.96-7.39-5.93-3.35-9.17-10.14-11.34-16.72,8.91-1.1,17.1-3.58,23.58-9.47.28-.27,1.22.6,1.31,1.08-3.97,5.96-10.8,9.78-17.64,13.83,12.02,7.71,24.86,8.58,37.87,8.11,24-.87,36.34-16.31,38.9-17.21.79-.28,1.02.9,1.82.98Z"/>
      <path class="cls-16" d="M267.86,181.32c-.17-.09-44.01-2.09-49.62.52,2.35-16.53,26.19-18.52,38.65-14.25,9.39,3.22,14.62,15.57,10.97,13.72Z"/>
      <path class="cls-14" d="M278.37,262.38c-1.27-.03-.42.87.26,1.44,1.35-1.07,3.65-.34,5.47-.2l7.81.56c2.46.18,4.7.41,7.38-.34.98,1.36,1.32,2.77,2.22,3.76-5.32,2.71-21.38,4.97-28,4.76-2.69-4.07-5.28-8.01-7.84-13.07,4.82,1.28,9.06,1.28,12.71,3.09Z"/>
      <path class="cls-13" d="M235.46,205.83c-.46-1.58,1.7-.38,2.02-1.35.23-.71-.02-1.43-.48-2.5,2.45-.11,4.83-.38,7.05.52s11.72-1.62,12.23-1.37c.57.27.56,1.21,1.41,1.74,4.6,2.89-19.28,4.49-22.23,2.96Z"/>
      <g>
        <path class="cls-6" d="M208.27,26.15c.6.33,2.25-.53,2.85.16,6.5,7.39,9.95,16.04,12.58,25.28,1.88,6.6,4.99,22.92,5.01,29.7l.07,26.34-.86,7.18c-1.23,10.3-7.15,22.28-15.4,31.04-10.72,11.39-21.59,22.52-34.27,31.75-9.5,6.92-21.9,5.71-32.31.75-6.51-3.1-12.29-3.86-19.34-3.76-21.08.3-33.71,22.9-29.97,42.09,3.88,19.92,15.54,30.87,35.9,42.35,1.28-8.76.41-17.33.72-25.99.16-4.53-7.53-1.6-10.3-8.19-.34-.81.78-1.06,1.42-1.71,6.49,3.37,5.49-6.37,13.31-7.86,1.62,2.25-1.32,4.8.86,6.86,1.56,11.12,6.58,21.38,15.75,29.11-10.94,16.39-18.49,33.45-23.82,52.4-18.91-15.44-31.85-35.65-37.95-57.81-1.12-4.07-2.58-3.68-9.71-2.58-4-5.47.02-31.97,2.81-37.22l5.68-10.67c.46-.86,5.31-24.16,13.87-40.78,2.44-4.73,4.06-9.7,5.58-14.87l1.64-5.58c3.33-11.34,4.98-26.98,7.7-39.71l.71-3.33c2.82-13.22,10.81-32.18,23.01-41.31,2.02-1.51,4.07-4.42,1.33-6.42-5.28-3.86-13.19-5.42-18.51-.64-13.98,12.57-19.55,35.12-22.77,49.86-.26,1.19-1.47,6.25-1.66,7.75l-.68,5.11c-.15,1.13-.76,3.13-.98,4.49-3.52,21.36-9.94,41.97-22.87,60.34-5.81,8.25-17.29,21.81-26.84,18.78-2.7-.86-4.46-3.07-4.93-6.17l-2.82-18.6c-5.05-33.33-39.7-76.22,1.28-97.95,18.17-9.63,34.65-20.46,51.22-32.4,8.84-6.37,17.37-12.42,27.91-14.89,19.1-4.47,29.03,8.77,38.41,22.37,3.87-1.82,7.26-3.31,11.03-5.02l7.77-3.52c1.18-.54,26.03-7.93,27.57-6.75Z"/>
        <g>
          <path class="cls-20" d="M171.63,169.89c-6.04,1.12-12.58-2-15.56-6.28-7.49-10.77-6.89-32.93,8.81-36.04,2.76-.55,7.79-.82,10.59.04,8.87,2.73,12.02,10.95,12.17,19.32.19,10.12-4.77,20.87-16.01,22.96Z"/>
          <path class="cls-15" d="M172.04,138.08c1.13-.81,3.37-.36,4.23.58s.42,2.47-.76,3.52c-.96.86-2.26.88-3.16.27-1.28-.87-2.09-3.11-.31-4.38Z"/>
        </g>
      </g>
      <g>
        <path class="cls-3" d="M363.34,223.03c.53-.33.93.17,1.44.49.57.36,1.01,1-.33,1.11-1.2,4.41-5.56,5.7-9.05,7.43-.92,8.53-.97,17.71.32,26.36,11.97-6.8,21.81-15.32,28.74-26.11,5.53-8.6,7.08-17.51,6.72-27.18-.59-15.95-12.1-31.05-28.08-31.05-.04-.37.15-.78-.12-1.51h-11.26c-.37.74-.5,1.14-.26,1.51-10.18.93-15.27,7.57-23.07,7.96-8.14.41-16.49-3.61-23.19-9.27-12.45-10.51-24.06-21.09-34.52-33.44-11.73-13.85-12.63-26.21-12.28-43.06-.05-.76.6-.81.74-1.14.32-.78-.55-1.87-.55-2.48-.1-17.24,5.78-52.46,18.73-65.87l4.9-.63c1.09.35,3.14-.08,4.7.27,13.64,3.03,26.73,7.34,39.1,14.62l6.82-9.92c6.99-10.17,19.42-15.68,31.88-11.59,8.67,2.85,16.23,7.83,23.75,13.45,15.42,11.51,30.78,21.45,47.58,30.36,13.86,7.34,25.89,15.25,26.86,31.14.68,11.01-6.03,28.52-9.62,38.38s-11.26,33.23-10.36,44.33c.23,2.87-3.8,14.48-11.2,12.27-13.68-4.08-25.26-21.48-30.91-34.31-7.65-17.37-13.07-34.7-15.64-53.46-.78-5.67-2.05-10.76-3.31-16.09-3.48-14.71-8.89-29.11-19.51-41.06-4.43-4.98-10.03-6.11-15.8-3.58-1.21.53-3.32,1.01-4.55,2.08-5.44,4.72,4.07,6.19,12.21,18.9,6.37,9.95,10.69,20.4,12.95,31.97.82,4.17,1.98,8.24,2.54,12.59,2.55,19.66,7.31,38.54,16.17,56.6.65,1.32.81,2.85,1.58,4.2,4.32,7.56,6.48,23.07,9.55,30.07,9.39,13.23,11.1,30.92,8.87,46.03-2.8-.45-7.43-1.64-9.19.06-4.34,10.43-3.64,13.27-9.27,23.07-7.9,13.76-17.27,26.66-30.61,36.98-3.4-16.82-11.03-31.41-19.82-46.29-1.11-1.88-3.82-4.76-2.08-6.58,10.46-10.95,16.04-20.21,15.21-34.75,6.8,1.67,6.51,10.08,13.22,7.19Z"/>
        <g>
          <path class="cls-10" d="M320.21,169.83c-10.42,1.3-17.33-6.15-19.03-15.34-1.76-9.47-1.23-25.16,12.37-26.87,2.62-.33,6.72-.94,9.44-.15,9.41,2.72,13.08,12.01,13.1,20.97.01,9.79-5.7,20.11-15.88,21.39Z"/>
          <path class="cls-4" d="M322.68,139.02c.36,1.91-.82,3.09-1.71,3.42-1.38.51-2.82.02-3.31-.92-.6-1.15-.36-3.77.57-3.82,1.4-.08,4.13-.35,4.45,1.33Z"/>
        </g>
      </g>
    </g>
    <g>
      <path class="cls-8" d="M336.96,123.15c-9.4-8.41-12.27-9.82-24.63-8.72"/>
      <path class="cls-9" d="M145.48,123.4c2.26-8.97,17.08-11.35,25.28-8.23"/>
    </g>
  </g>
</svg>